<svg xmlns="http://www.w3.org/2000/svg" viewBox="0 0 64 64" fill="none">
  <defs>
    <linearGradient id="bg" x1="12" y1="8" x2="52" y2="56" gradientUnits="userSpaceOnUse">
      <stop stop-color="#818CF8" />
      <stop offset="1" stop-color="#4F46E5" />
    </linearGradient>
    <linearGradient id="mail" x1="20" y1="22" x2="43" y2="42" gradientUnits="userSpaceOnUse">
      <stop stop-color="#F8FAFC" />
      <stop offset="1" stop-color="#E2E8F0" />
    </linearGradient>
  </defs>
  <rect x="6" y="6" width="52" height="52" rx="16" fill="url(#bg)" />
  <path d="M19 23.5A3.5 3.5 0 0 1 22.5 20h19A3.5 3.5 0 0 1 45 23.5v17A3.5 3.5 0 0 1 41.5 44h-19A3.5 3.5 0 0 1 19 40.5v-17Z" fill="url(#mail)" />
  <path d="m21.5 24.5 10.5 8 10.5-8" stroke="#4F46E5" stroke-width="2.75" stroke-linecap="round" stroke-linejoin="round" />
  <path d="M21 41.5 29.75 33" stroke="#6366F1" stroke-width="2.2" stroke-linecap="round" />
  <path d="M43 41.5 34.25 33" stroke="#6366F1" stroke-width="2.2" stroke-linecap="round" />
  <path d="M46.5 18.5h-6" stroke="#C7D2FE" stroke-width="2.5" stroke-linecap="round" />
  <path d="M49.5 23.5h-9" stroke="#C7D2FE" stroke-width="2.5" stroke-linecap="round" />
</svg>
